<?xml version="1.0" standalone="no"?>
<!DOCTYPE svg PUBLIC "-//W3C//DTD SVG 20010904//EN"
 "http://www.w3.org/TR/2001/REC-SVG-20010904/DTD/svg10.dtd">
<svg version="1.0" xmlns="http://www.w3.org/2000/svg"
 width="2304.000000pt" height="2304.000000pt" viewBox="0 0 2304.000000 2304.000000"
 preserveAspectRatio="xMidYMid meet">
<metadata>
Created by potrace 1.14, written by Peter Selinger 2001-2017
</metadata>
<g transform="translate(0.000000,2304.000000) scale(0.100000,-0.100000)"
fill="#000000" stroke="none">
<path d="M9875 21924 c-16 -2 -70 -9 -120 -15 -464 -56 -942 -262 -1335 -575
-128 -102 -344 -324 -442 -454 -501 -669 -646 -1491 -423 -2398 133 -544 185
-933 185 -1387 0 -1307 -513 -2535 -1428 -3416 -440 -424 -916 -734 -1536
-1001 -488 -209 -864 -456 -1182 -773 -418 -417 -654 -870 -729 -1400 -29
-204 -16 -511 30 -718 79 -351 279 -698 526 -914 174 -152 469 -319 729 -413
328 -119 713 -176 1025 -151 731 59 1283 445 1631 1141 206 412 331 899 389
1510 19 202 25 395 29 920 4 484 22 688 92 1045 145 743 440 1405 903 2023
578 772 1089 1145 1531 1119 122 -7 194 -26 305 -82 271 -134 499 -410 726
-880 226 -467 441 -1142 501 -1565 21 -152 18 -758 -5 -935 -38 -296 -118
-629 -217 -905 -64 -180 -139 -356 -320 -750 -178 -387 -279 -631 -329 -795
-126 -410 -150 -773 -80 -1187 73 -431 266 -856 546 -1203 96 -119 315 -335
433 -426 366 -285 788 -468 1265 -551 177 -30 616 -33 793 -5 575 92 1093 357
1502 766 205 205 359 419 479 665 190 386 271 747 271 1201 0 315 -22 479
-115 865 -86 354 -130 626 -155 949 -13 173 -13 549 0 722 91 1189 578 2244
1407 3049 437 426 917 739 1543 1010 409 177 744 403 1055 715 461 460 740
986 821 1545 22 155 15 470 -15 612 -44 214 -131 422 -250 600 -408 608 -1267
993 -2047 917 -634 -62 -1151 -401 -1496 -981 -243 -410 -402 -938 -472 -1563
-31 -282 -38 -430 -41 -905 -5 -694 -34 -971 -152 -1445 -162 -651 -431 -1213
-849 -1770 -539 -721 -1020 -1090 -1445 -1112 -185 -10 -329 31 -490 139 -348
232 -645 741 -917 1568 -159 483 -203 692 -222 1062 -30 568 54 1105 261 1659
75 200 123 311 304 704 283 615 375 881 421 1230 18 132 20 420 4 565 -72 662
-398 1282 -901 1714 -397 341 -876 561 -1399 641 -99 16 -522 29 -595 19z
m8346 -2324 c569 -58 1012 -453 1139 -1015 33 -143 33 -376 1 -525 -111 -518
-520 -915 -1037 -1005 -124 -22 -339 -20 -462 4 -261 51 -480 167 -667 355
-151 151 -244 302 -310 499 -46 139 -65 256 -65 407 0 333 121 640 347 880
210 223 501 368 806 400 107 11 135 11 248 0z m-13100 -7986 c391 -74 727
-327 908 -684 204 -400 181 -877 -60 -1267 -67 -107 -262 -309 -365 -376 -157
-102 -332 -173 -504 -203 -145 -25 -390 -15 -530 21 -502 131 -867 526 -956
1035 -24 142 -15 380 20 515 47 179 117 329 220 465 295 392 789 585 1267 494z"/>
<path d="M15455 4913 c-768 -98 -1383 -667 -1521 -1408 -28 -149 -26 -462 4
-602 132 -612 572 -1107 1161 -1303 209 -70 298 -84 536 -84 181 -1 226 2 324
22 333 67 657 237 870 455 l54 56 -84 78 c-46 44 -140 132 -209 195 l-124 116
-67 -63 c-223 -210 -476 -315 -759 -315 -552 0 -1028 432 -1110 1005 -30 213
13 472 111 667 82 163 242 348 384 445 438 297 999 247 1368 -121 l66 -66 210
196 c116 108 211 200 211 205 0 13 -146 140 -233 202 -233 167 -495 274 -766
311 -101 15 -345 20 -426 9z"/>
<path d="M2900 3215 l0 -1645 305 0 305 0 2 1150 3 1150 864 -1150 864 -1150
299 0 298 0 0 1645 0 1645 -295 0 -295 0 0 -1150 c0 -632 -3 -1150 -7 -1149
-5 0 -395 516 -869 1147 l-861 1147 -306 3 -307 2 0 -1645z"/>
<path d="M7760 4590 l0 -270 525 0 525 0 0 -1375 0 -1375 300 0 300 0 0 1376
0 1376 28 -2 c15 -1 253 -2 530 -1 l502 1 0 270 0 270 -1355 0 -1355 0 0 -270z"/>
<path d="M10980 3215 l0 -1645 1240 0 1240 0 -2 273 -3 272 -937 3 -938 2 0
425 0 425 850 0 850 0 0 275 0 275 -850 0 -850 0 0 400 0 400 938 0 937 -1 3
271 2 270 -1240 0 -1240 0 0 -1645z"/>
<path d="M17340 3215 l0 -1645 305 0 305 0 0 700 0 700 820 0 820 0 0 -700 0
-700 300 0 300 0 0 1645 0 1645 -300 0 -300 0 0 -670 0 -670 -820 0 -820 0 0
670 0 670 -305 0 -305 0 0 -1645z"/>
</g>
</svg>
